<?xml version="1.0" encoding="UTF-8"?>
<svg xmlns="http://www.w3.org/2000/svg" xmlns:xlink="http://www.w3.org/1999/xlink" width="1365px" height="1024px" viewBox="0 0 1023 768" version="1.1">
<g id="surface1">
<path style=" stroke:none;fill-rule:evenodd;fill:rgb(8.235294%,64.705882%,89.803922%);fill-opacity:1;" d="M 194.273438 289.46875 C 185.335938 289.46875 177.410156 293.230469 170.5 300.738281 C 163.585938 308.253906 159.207031 317.761719 157.367188 329.265625 C 155.527344 340.765625 156.707031 349.886719 160.9375 356.640625 C 165.148438 363.394531 171.675781 366.773438 180.515625 366.773438 C 190.625 366.773438 199.113281 363.152344 205.984375 355.90625 L 212.382812 371.324219 C 203.289062 379.59375 191.253906 383.738281 176.261719 383.738281 C 161.273438 383.738281 150.417969 378.78125 143.699219 368.910156 C 136.980469 359.007812 134.988281 345.53125 137.722656 328.453125 C 140.265625 312.542969 146.992188 299.246094 157.914062 288.554688 C 168.820312 277.863281 181.460938 272.515625 195.816406 272.515625 C 208.121094 272.515625 217.558594 275.035156 224.125 280.070312 L 213.761719 295.859375 C 210.191406 291.605469 203.695312 289.46875 194.273438 289.46875 M 290.699219 331.484375 C 287.796875 327.28125 280.5625 328.160156 278.152344 332.171875 C 278.097656 332.058594 278.039062 331.941406 277.984375 331.828125 C 275.691406 329.644531 274.40625 326.472656 271.109375 325.285156 L 271.109375 324.589844 C 275.699219 321.25 275.925781 314.308594 270.421875 311.679688 C 267.320312 310.195312 263.050781 310.203125 258.566406 310.300781 C 256.164062 310.523438 250.046875 309.996094 247.742188 315.8125 C 247.148438 317.316406 246.839844 319.355469 247.570312 321.148438 C 248.601562 322.414062 249.632812 323.675781 250.664062 324.9375 L 250.664062 325.109375 C 248.308594 325.683594 243.957031 329.882812 243.789062 331.996094 C 241.398438 330.800781 240.585938 328.601562 237.089844 328.214844 C 231.722656 327.613281 226.882812 336.679688 229.1875 340.441406 C 229.640625 340.667969 230.101562 340.898438 230.5625 341.125 C 230.394531 341.941406 230.746094 342.351562 230.21875 343.199219 C 229.703125 343.539062 229.1875 343.882812 228.671875 344.226562 C 228.566406 349.953125 230.972656 357.996094 238.464844 355.761719 C 240.648438 355.109375 241.511719 353.117188 243.449219 352.320312 C 244.578125 355.695312 247.871094 357.441406 250.320312 359.542969 C 246.886719 362.074219 243.597656 370.070312 251.007812 373.152344 C 258.589844 376.316406 277.183594 375.535156 274.378906 364.714844 C 273.792969 362.464844 272.25 361.078125 271.011719 359.496094 C 273.8125 357.472656 275.804688 355.660156 277.984375 352.496094 C 278.671875 353.183594 279.359375 353.867188 280.046875 354.550781 C 289.957031 358.910156 292.296875 352.171875 292.761719 342.855469 C 292.949219 339.03125 292.457031 334.03125 290.699219 331.484375 M 288.980469 325.109375 C 288.65625 322.035156 281.148438 314.480469 277.984375 314.261719 C 277.699219 314.429688 277.414062 314.605469 277.125 314.777344 C 277.070312 319.601562 284.5625 328.289062 288.980469 325.285156 Z M 275.578125 324.425781 C 275.183594 324.863281 275.113281 325.117188 275.0625 325.96875 C 275.453125 326.789062 275.773438 327.308594 276.609375 327.695312 C 277.84375 328.054688 278.570312 327.535156 279.359375 327.007812 C 279.566406 326.34375 279.871094 325.539062 279.527344 324.765625 C 279.132812 324.304688 278.726562 323.851562 278.328125 323.386719 L 276.609375 323.386719 C 276.179688 323.773438 275.878906 323.878906 275.578125 324.425781 M 245.683594 323.558594 C 244.996094 323.445312 244.308594 323.332031 243.621094 323.21875 C 243.214844 323.558594 242.820312 323.90625 242.417969 324.25 C 241.980469 324.726562 241.699219 325.519531 242.074219 326.316406 C 242.367188 327.0625 242.511719 327.234375 243.273438 327.519531 L 244.996094 327.519531 C 246.046875 327.09375 246.488281 326.367188 246.539062 324.9375 C 246.253906 324.476562 245.96875 324.019531 245.683594 323.558594 M 244.132812 314.089844 C 243.847656 314.03125 243.5625 313.976562 243.273438 313.914062 C 238.664062 316.789062 235.554688 319.867188 232.625 324.425781 C 232.796875 324.824219 232.96875 325.222656 233.136719 325.625 C 233.25 325.683594 233.367188 325.742188 233.484375 325.800781 C 237.921875 325.570312 246.65625 318.652344 244.132812 314.089844 M 232.449219 360.589844 C 233.59375 363.265625 239.882812 370.296875 243.101562 370.574219 C 243.273438 370.523438 243.449219 370.457031 243.621094 370.394531 C 243.789062 370.050781 243.960938 369.707031 244.132812 369.367188 C 243.589844 363.6875 238.757812 359.152344 233.308594 358.335938 C 233.023438 358.515625 232.738281 358.695312 232.449219 358.859375 Z M 245.683594 360.066406 C 246.066406 359.542969 246.167969 359.152344 246.023438 358.515625 C 245.742188 357.945312 245.449219 357.375 245.164062 356.789062 C 244.59375 356.671875 244.019531 356.558594 243.449219 356.445312 C 242.578125 356.984375 242.207031 357.308594 241.554688 357.996094 C 241.480469 359.382812 241.582031 360.101562 242.417969 360.589844 C 242.871094 361.046875 243.84375 361.339844 244.648438 360.929688 C 244.996094 360.636719 245.335938 360.359375 245.683594 360.066406 M 277.8125 361.273438 C 278.699219 360.898438 279.144531 360.605469 279.527344 359.726562 C 279.742188 358.941406 279.5625 358.402344 279.359375 357.652344 C 278.957031 357.375 278.554688 357.082031 278.152344 356.789062 C 277.640625 356.738281 277.125 356.671875 276.609375 356.625 C 276.015625 357.113281 275.59375 357.246094 275.238281 357.996094 C 275.117188 358.335938 275.003906 358.695312 274.890625 359.039062 C 275.359375 360.507812 275.847656 361.289062 277.8125 361.273438 M 277.8125 370.753906 C 282.820312 370.214844 286.183594 363.703125 288.980469 360.589844 C 288.953125 359.398438 288.746094 359.332031 288.292969 358.695312 C 287.949219 358.632812 287.605469 358.582031 287.265625 358.515625 C 282.527344 360.898438 279.65625 361.878906 277.640625 366.953125 C 277.316406 367.769531 276.628906 368.699219 276.953125 369.707031 C 277.238281 370.050781 277.527344 370.394531 277.8125 370.753906 M 299.117188 343.363281 C 299.996094 344.617188 300.984375 344.765625 302.039062 345.777344 L 302.039062 346.460938 C 300.867188 346.722656 299.777344 347.113281 298.945312 347.667969 C 298.832031 348.191406 298.71875 348.695312 298.601562 349.21875 C 299.375 350.214844 300.382812 350.703125 301.179688 351.632812 C 300.378906 352.9375 298.335938 352.25 297.570312 353.703125 C 297.515625 354.160156 297.457031 354.617188 297.402344 355.074219 C 298.089844 355.875 298.777344 356.671875 299.464844 357.488281 C 299.289062 357.605469 299.117188 357.71875 298.945312 357.832031 C 297.46875 358.289062 296.527344 357.996094 295.339844 358.859375 C 295.28125 359.089844 295.222656 359.316406 295.167969 359.542969 C 295.367188 361.046875 296.167969 361.550781 296.882812 362.480469 C 296.632812 363.183594 296.65625 362.9375 296.195312 363.347656 C 295.320312 363.019531 294.140625 362.953125 293.105469 363.167969 C 292.875 363.460938 292.648438 363.738281 292.417969 364.03125 C 292.523438 366.085938 293.824219 366.722656 293.277344 368.160156 C 292.15625 367.964844 291.261719 367.261719 290.183594 367.652344 C 289.507812 367.914062 289.292969 368.042969 288.980469 368.679688 C 288.636719 370.246094 289.757812 371.011719 289.5 372.464844 L 289.324219 372.464844 C 288.292969 372.121094 287.265625 371.78125 286.230469 371.4375 C 285.828125 371.667969 285.429688 371.894531 285.03125 372.121094 C 284.632812 373.492188 284.929688 374.472656 285.203125 375.910156 C 285.085938 376.023438 284.972656 376.136719 284.855469 376.25 C 283.3125 375.957031 283.164062 375.078125 281.421875 374.878906 C 281.074219 375.042969 280.734375 375.222656 280.386719 375.402344 C 279.851562 376.578125 280.199219 377.832031 280.046875 379.1875 C 279.933594 379.238281 279.820312 379.300781 279.703125 379.351562 C 278.957031 378.78125 278.210938 378.207031 277.46875 377.636719 C 276.953125 377.6875 276.4375 377.75 275.917969 377.800781 C 275.578125 378.046875 275.238281 378.273438 274.890625 378.5 C 274.851562 379.578125 274.796875 381.175781 274.203125 381.765625 C 272.425781 380.492188 272.054688 378.648438 269.5625 380.214844 C 269.324219 381.257812 269.105469 382.613281 268.535156 383.316406 L 268.359375 383.316406 C 267.636719 382.449219 267.214844 381.257812 266.125 380.738281 C 263.683594 380.132812 263.714844 382.695312 262.691406 384 L 262.519531 384 C 261.777344 382.988281 261.335938 381.78125 260.457031 380.902344 L 259.082031 380.902344 C 257.941406 381.765625 257.566406 384 256.160156 383.496094 C 256.046875 382.269531 255.777344 381.257812 254.960938 380.738281 C 254.511719 380.394531 254.273438 380.246094 253.753906 380.394531 C 252.140625 380.703125 252.023438 381.929688 251.007812 382.808594 C 250.777344 382.679688 250.550781 382.5625 250.320312 382.449219 C 250.359375 380.851562 250.035156 380.085938 249.460938 379.1875 C 249.003906 379.121094 248.542969 379.074219 248.085938 379.007812 C 246.6875 379.320312 246.429688 380.164062 245.507812 380.902344 C 245.28125 380.851562 245.050781 380.785156 244.824219 380.738281 C 244.765625 379.710938 244.710938 378.664062 244.648438 377.636719 C 244.308594 377.34375 243.960938 377.066406 243.621094 376.773438 C 241.574219 376.773438 241.382812 377.574219 240.179688 378.324219 C 239.953125 378.273438 239.726562 378.207031 239.496094 378.160156 C 239.75 375.972656 239.957031 375.109375 238.632812 373.851562 C 236.570312 373.917969 236.1875 375.109375 234.683594 374.878906 C 234.988281 372.613281 235.765625 371.78125 234.167969 370.230469 C 232.441406 370.246094 231.9375 370.785156 230.5625 371.09375 C 230.503906 371.03125 230.449219 370.980469 230.390625 370.914062 C 230.734375 369.773438 231.074219 368.617188 231.421875 367.472656 C 230.960938 366.953125 230.503906 366.445312 230.046875 365.925781 C 228.957031 366.085938 227.867188 366.265625 226.78125 366.445312 C 226.71875 366.265625 226.664062 366.085938 226.609375 365.925781 L 226.609375 365.746094 C 227.402344 364.914062 227.953125 364.308594 227.984375 362.644531 C 227.707031 362.105469 227.664062 361.925781 227.125 361.617188 C 226.230469 361.0625 224.683594 361.488281 223.691406 361.273438 L 223.691406 361.09375 C 224.195312 359.496094 225.289062 359.660156 225.40625 357.488281 C 225.121094 357.148438 224.832031 356.789062 224.546875 356.445312 C 223.765625 355.957031 222.457031 356.21875 221.457031 355.761719 L 221.457031 355.238281 C 222.546875 354.519531 223.5625 353.902344 223.691406 352.136719 C 222.960938 350.703125 221.894531 350.589844 220.082031 350.246094 L 220.082031 349.382812 C 221.15625 348.859375 221.882812 348.304688 222.65625 347.488281 C 222.566406 344.632812 220.890625 345.496094 219.390625 344.226562 L 219.390625 343.703125 C 220.320312 343.214844 221.617188 342.90625 222.144531 341.992188 C 222.257812 341.582031 222.371094 341.183594 222.484375 340.785156 C 221.644531 339.601562 220.386719 339.285156 219.5625 338.199219 C 220.238281 337.363281 222.132812 336.90625 223 336.304688 L 223 334.925781 C 222.371094 333.746094 221.386719 333.46875 220.597656 332.515625 C 220.652344 332.339844 220.710938 332.171875 220.769531 331.996094 C 223.054688 331.527344 224.347656 331.84375 224.546875 329.246094 C 223.765625 328.484375 222.691406 327.804688 222.484375 326.488281 L 222.832031 326.488281 C 226.207031 326.253906 228.585938 325.914062 225.066406 321.667969 C 225.179688 321.492188 225.292969 321.320312 225.40625 321.148438 L 225.578125 321.148438 C 227.601562 321.457031 228.359375 321.53125 229.527344 320.289062 C 229.519531 318.507812 228.898438 318.019531 228.328125 316.84375 C 228.554688 316.671875 228.785156 316.5 229.015625 316.328125 C 229.816406 316.683594 230.925781 317.269531 231.933594 316.84375 C 232.335938 316.5 232.738281 316.152344 233.136719 315.8125 C 233.089844 314.085938 232.371094 313.457031 232.449219 312.195312 L 233.136719 312.195312 C 234.136719 312.652344 234.542969 313.015625 236.058594 313.058594 C 236.503906 312.757812 236.644531 312.691406 236.917969 312.195312 C 237.664062 311.304688 237.191406 310.023438 236.746094 308.921875 C 236.976562 308.75 237.207031 308.578125 237.433594 308.402344 C 238.542969 309.054688 238.933594 309.707031 240.699219 309.78125 C 241.101562 309.496094 241.5 309.207031 241.902344 308.921875 C 241.960938 307.769531 242.015625 306.625 242.074219 305.476562 L 242.242188 305.476562 C 243.945312 306.21875 244.144531 307.527344 246.539062 306.855469 C 246.878906 305.925781 247.085938 304.007812 247.398438 303.242188 C 248.84375 303.667969 249.144531 304.867188 250.664062 305.476562 C 252.683594 304.582031 251.914062 303.09375 253.242188 301.6875 C 253.984375 302.546875 254.734375 303.40625 255.476562 304.273438 C 256.8125 304.292969 257.144531 304.050781 257.882812 303.582031 C 258.109375 302.78125 258.339844 301.976562 258.566406 301.171875 C 258.910156 301.230469 259.257812 301.285156 259.597656 301.34375 C 259.945312 302.148438 260.285156 302.949219 260.628906 303.753906 C 261.144531 303.867188 261.660156 303.988281 262.179688 304.101562 C 263.433594 303.230469 263.792969 302.285156 264.753906 301.171875 L 264.925781 301.171875 C 265.476562 302.011719 265.597656 303.550781 266.472656 304.101562 C 267.027344 304.585938 267.5625 304.597656 268.359375 304.445312 C 269.046875 303.699219 269.738281 302.949219 270.421875 302.203125 C 270.648438 302.320312 270.882812 302.433594 271.109375 302.546875 C 271.019531 304.847656 271.511719 305.160156 272.828125 305.992188 C 274.550781 305.695312 274.859375 304.792969 275.917969 303.925781 C 276.386719 304.203125 276.160156 303.988281 276.4375 304.445312 C 276.816406 305.683594 276.070312 306.8125 277.296875 307.542969 C 277.734375 307.9375 277.992188 308.011719 278.839844 308.0625 C 279.527344 307.542969 280.21875 307.027344 280.90625 306.511719 C 281.1875 306.570312 281.476562 306.625 281.761719 306.683594 C 281.605469 308.347656 281.023438 309.632812 282.28125 310.472656 C 283.800781 311.460938 284.960938 309.980469 286.230469 309.613281 C 286.34375 309.78125 286.457031 309.953125 286.578125 310.128906 C 286.402344 311.042969 286.230469 311.964844 286.058594 312.882812 C 286.273438 313.675781 286.503906 313.746094 286.917969 314.261719 C 288.53125 314.320312 289.648438 313.429688 290.871094 313.914062 C 290.546875 315.613281 289.710938 316.066406 290.183594 317.878906 C 291.671875 318.390625 293.660156 317.886719 294.652344 318.390625 C 294.132812 319.425781 292.863281 320.53125 293.445312 322.007812 C 293.726562 322.601562 293.726562 322.589844 294.308594 322.871094 C 295.320312 323.335938 296.601562 322.816406 297.570312 323.21875 L 297.570312 323.90625 C 296.75 324.445312 295.421875 325.613281 296.027344 327.007812 C 296.308594 327.632812 296.4375 327.746094 297.058594 328.039062 C 298.230469 328.441406 299.308594 327.980469 299.976562 328.898438 C 299.082031 329.984375 297.9375 330.152344 297.742188 331.996094 C 297.855469 332.339844 297.96875 332.691406 298.089844 333.035156 C 299.023438 333.347656 300.855469 333.734375 301.523438 334.410156 C 301.464844 334.582031 301.410156 334.753906 301.351562 334.925781 C 300.277344 335.324219 299.652344 335.90625 298.945312 336.652344 C 298.925781 338.140625 299.226562 338.292969 299.804688 339.0625 C 300.605469 339.347656 301.410156 339.632812 302.210938 339.921875 L 302.210938 340.441406 C 301.132812 341.011719 299.835938 341.363281 299.289062 342.496094 C 299.230469 342.789062 299.175781 343.082031 299.117188 343.363281 M 378.09375 381.894531 L 359.785156 381.894531 L 367.054688 336.460938 C 368.128906 329.75 367.625 324.859375 365.5625 321.777344 C 363.488281 318.691406 359.546875 317.152344 353.738281 317.152344 C 351.050781 317.152344 348.054688 317.910156 344.765625 319.425781 C 341.46875 320.945312 338.792969 322.828125 336.71875 325.078125 L 327.628906 381.894531 L 309.320312 381.894531 L 321.902344 303.277344 L 335.082031 303.277344 L 337.277344 310.613281 C 343.199219 304.742188 351.015625 301.808594 360.730469 301.808594 C 370.058594 301.808594 376.972656 304.601562 381.476562 310.210938 C 385.964844 315.8125 387.417969 323.636719 385.8125 333.664062 Z M 422.929688 381.894531 L 404.398438 381.894531 L 414.570312 318.320312 L 404.535156 318.320312 L 406.945312 303.277344 L 435.507812 303.277344 Z M 427.898438 294.09375 C 424.964844 294.09375 422.625 293.054688 420.890625 290.976562 C 419.140625 288.902344 418.507812 286.382812 418.976562 283.453125 C 419.449219 280.515625 420.882812 278.011719 423.296875 275.921875 C 425.699219 273.84375 428.371094 272.804688 431.300781 272.804688 C 434.230469 272.804688 436.5625 273.84375 438.304688 275.921875 C 440.046875 278.011719 440.691406 280.515625 440.21875 283.453125 C 439.75 286.382812 438.304688 288.902344 435.894531 290.976562 C 433.492188 293.054688 430.824219 294.09375 427.898438 294.09375 M 476.070312 375.289062 C 472.375 380.671875 467.109375 383.363281 460.273438 383.363281 C 451.972656 383.363281 448.75 377.589844 450.597656 366.039062 L 465.328125 273.980469 L 484.34375 269.574219 L 470.199219 357.960938 C 468.648438 367.652344 470.605469 373.429688 476.070312 375.289062 M 581.605469 289.324219 C 578.628906 289.324219 574.972656 289.445312 570.636719 289.695312 L 566.511719 315.460938 C 569.410156 315.65625 572.472656 315.75 575.695312 315.75 C 588.097656 315.75 595.046875 311.078125 596.539062 301.726562 C 597.867188 293.464844 592.886719 289.324219 581.605469 289.324219 M 558.441406 365.890625 C 562.246094 366.234375 565.339844 366.414062 567.734375 366.414062 C 576.230469 366.414062 582.621094 364.960938 586.929688 362.074219 C 591.214844 359.1875 593.902344 354.390625 594.972656 347.683594 C 595.953125 341.574219 594.882812 337.121094 591.765625 334.324219 C 588.644531 331.539062 582.644531 330.144531 573.757812 330.144531 C 571.902344 330.144531 568.691406 330.214844 564.125 330.363281 Z M 598.992188 321.1875 C 611.578125 325.835938 616.710938 335.429688 614.386719 349.96875 C 612.820312 359.742188 607.886719 367.523438 599.597656 373.265625 C 591.304688 379.023438 581.320312 381.894531 569.652344 381.894531 L 536.839844 381.894531 L 554.035156 274.425781 C 568.597656 273.738281 578.78125 273.394531 584.59375 273.394531 C 595.726562 273.394531 604.046875 275.78125 609.558594 280.554688 C 615.070312 285.324219 617.121094 292.132812 615.703125 300.996094 C 614.335938 309.515625 608.769531 316.242188 598.992188 321.1875 M 654.597656 381.894531 L 636.066406 381.894531 L 646.238281 318.320312 L 636.203125 318.320312 L 638.613281 303.277344 L 667.179688 303.277344 Z M 659.566406 294.09375 C 656.636719 294.09375 654.296875 293.054688 652.550781 290.976562 C 650.808594 288.902344 650.179688 286.382812 650.644531 283.453125 C 651.117188 280.515625 652.550781 278.011719 654.960938 275.921875 C 657.367188 273.84375 660.042969 272.804688 662.972656 272.804688 C 665.898438 272.804688 668.234375 273.84375 669.980469 275.921875 C 671.714844 278.011719 672.359375 280.515625 671.886719 283.453125 C 671.417969 286.382812 669.972656 288.902344 667.574219 290.976562 C 665.160156 293.054688 662.496094 294.09375 659.566406 294.09375 M 748.503906 381.894531 L 726.75 381.894531 L 709.375 346.28125 L 699.097656 355.613281 L 694.890625 381.894531 L 676.578125 381.894531 L 693.847656 273.980469 L 712.863281 269.574219 L 702.640625 333.445312 L 733.617188 303.277344 L 755.664062 303.277344 L 724.382812 333.082031 Z M 802.148438 317.152344 C 791.699219 317.152344 784.289062 322.902344 779.910156 334.40625 L 818.433594 334.40625 C 819.003906 322.902344 813.574219 317.152344 802.148438 317.152344 M 833.070312 348.191406 L 777.039062 348.191406 C 776.378906 354.472656 777.746094 359.332031 781.144531 362.808594 C 784.546875 366.28125 789.59375 368.011719 796.28125 368.011719 C 804.632812 368.011719 811.324219 365.84375 816.367188 361.488281 L 821.230469 375.515625 C 813.945312 380.738281 803.910156 383.363281 791.113281 383.363281 C 779.152344 383.363281 770.25 379.855469 764.421875 372.824219 C 758.582031 365.808594 756.675781 356.003906 758.683594 343.425781 C 760.667969 331.046875 766.089844 321.019531 774.96875 313.335938 C 783.832031 305.652344 793.617188 301.808594 804.3125 301.808594 C 815.6875 301.808594 824.277344 305.207031 830.070312 312.011719 C 835.871094 318.8125 837.925781 327.480469 836.242188 337.996094 C 835.882812 340.253906 834.824219 343.65625 833.070312 348.191406 M 881.738281 316.410156 C 875.339844 316.410156 871.734375 318.953125 870.921875 324.042969 C 870.601562 326.058594 871.359375 327.863281 873.199219 329.480469 C 875.042969 331.09375 879.1875 333.261719 885.640625 335.984375 C 892.089844 338.699219 896.515625 341.992188 898.925781 345.855469 C 901.332031 349.722656 902.101562 354.390625 901.222656 359.871094 C 900.058594 367.164062 896.4375 372.90625 890.371094 377.082031 C 884.304688 381.277344 876.640625 383.363281 867.359375 383.363281 C 862.136719 383.363281 858.023438 382.941406 855.003906 382.074219 C 851.996094 381.226562 848.234375 379.464844 843.722656 376.839844 L 852.582031 362.21875 C 857.351562 366.578125 863.183594 368.746094 870.066406 368.746094 C 877.195312 368.746094 881.164062 366.21875 881.980469 361.113281 C 882.457031 358.140625 881.773438 355.695312 879.933594 353.785156 C 878.09375 351.875 874.273438 349.625 868.488281 347.015625 C 855.863281 341.402344 850.359375 333.519531 851.984375 323.386719 C 853.070312 316.589844 856.503906 311.285156 862.292969 307.492188 C 868.074219 303.699219 874.988281 301.808594 883.046875 301.808594 C 891.203125 301.808594 898.578125 303.636719 905.167969 307.3125 L 897.613281 321.550781 C 894.160156 318.125 888.867188 316.410156 881.738281 316.410156 "/>
</g>
</svg>
